<svg width="16" height="16" viewBox="0 0 16 16" fill="none" xmlns="http://www.w3.org/2000/svg">
<path d="M13.4444 1.6H12.6667V0H11.1111V1.6H4.88889V0H3.33333V1.6H2.55556C1.69222 1.6 1.00778 2.32 1.00778 3.2L1 14.4C1 14.8243 1.16389 15.2313 1.45561 15.5314C1.74733 15.8314 2.143 16 2.55556 16H13.4444C14.3 16 15 15.28 15 14.4V3.2C15 2.32 14.3 1.6 13.4444 1.6ZM13.4444 14.4H2.55556V6.4H13.4444V14.4ZM5.66667 9.6H4.11111V8H5.66667V9.6ZM8.77778 9.6H7.22222V8H8.77778V9.6ZM11.8889 9.6H10.3333V8H11.8889V9.6ZM5.66667 12.8H4.11111V11.2H5.66667V12.8ZM8.77778 12.8H7.22222V11.2H8.77778V12.8ZM11.8889 12.8H10.3333V11.2H11.8889V12.8Z" fill="#404B5A"/>
</svg>
