<svg width="15" height="15" viewBox="0 0 15 15" fill="none" xmlns="http://www.w3.org/2000/svg">
<path d="M7.60617 0.780273C2.86099 0.780273 -0.370326 5.73484 1.41938 10.2631L2.18534 12.1985C2.21879 12.2829 2.22487 12.3762 2.20268 12.4645C2.18049 12.5527 2.13121 12.6313 2.06219 12.6883L0.442429 14.0274C0.376116 14.0822 0.327958 14.1569 0.304606 14.2411C0.281254 14.3254 0.283862 14.415 0.312068 14.4976C0.340273 14.5803 0.392686 14.6519 0.462067 14.7025C0.531448 14.7531 0.614374 14.7803 0.699391 14.7803H7.11933C8.06081 14.7804 8.99308 14.5894 9.86292 14.2182C10.7328 13.8471 11.5231 13.303 12.1889 12.6171C12.8546 11.9312 13.3827 11.1168 13.7431 10.2206C14.1034 9.32437 14.2888 8.36378 14.2888 7.39369C14.2888 3.741 11.4154 0.780273 7.87052 0.780273H7.60699H7.60617Z" fill="#878F9A"/>
</svg>
