<svg width="20" height="18" viewBox="0 0 20 18" fill="none" xmlns="http://www.w3.org/2000/svg">
<path fill-rule="evenodd" clip-rule="evenodd" d="M10 2.72199L18 10.5521V16.0425C18 17.1236 17.1046 18 16 18H4C2.89543 18 2 17.1236 2 16.0425V10.5521L10 2.72199Z" fill="#404B5A"/>
<path fill-rule="evenodd" clip-rule="evenodd" d="M16.6667 1.68725V6.25482L14 3.64478V1.68725C14 1.32688 14.2985 1.03474 14.6667 1.03474H16C16.3682 1.03474 16.6667 1.32688 16.6667 1.68725Z" fill="#404B5A"/>
<path fill-rule="evenodd" clip-rule="evenodd" d="M9.05719 0.382232C9.57789 -0.127412 10.4221 -0.127409 10.9428 0.382232L19.8047 9.05598C20.0651 9.3108 20.0651 9.72394 19.8047 9.97876C19.5444 10.2336 19.1223 10.2336 18.8619 9.97876L10 1.30502L1.13807 9.97876C0.877722 10.2336 0.455612 10.2336 0.195262 9.97876C-0.0650874 9.72394 -0.0650874 9.3108 0.195262 9.05598L9.05719 0.382232Z" fill="#404B5A"/>
</svg>
