<svg width="16" height="14" viewBox="0 0 16 14" fill="none" xmlns="http://www.w3.org/2000/svg">
<path fill-rule="evenodd" clip-rule="evenodd" d="M6.05876 9.8966L4.49215 7.89199L1.77885 11.3631H14.1825L9.53114 5.57729L6.05876 9.8966ZM0.228394 2.06033C0.228388 1.65057 0.390586 1.25748 0.679539 0.96695C0.968492 0.676423 1.3607 0.512092 1.77045 0.509872H14.189C14.3923 0.509871 14.5936 0.55002 14.7813 0.628017C14.9691 0.706014 15.1396 0.820322 15.283 0.96438C15.4265 1.10844 15.5401 1.27941 15.6173 1.46748C15.6945 1.65556 15.7338 1.85703 15.733 2.06033V12.1383C15.733 12.5484 15.5705 12.9418 15.2811 13.2324C14.9918 13.523 14.5991 13.6871 14.189 13.6888H1.77175C1.56855 13.6886 1.36738 13.6483 1.17978 13.5702C0.992185 13.4922 0.821841 13.3778 0.67852 13.2338C0.535198 13.0898 0.421719 12.9188 0.344587 12.7309C0.267456 12.5429 0.228189 12.3415 0.22904 12.1383L0.228394 2.06033ZM4.10454 5.93648C4.51575 5.93648 4.91011 5.77312 5.20088 5.48236C5.49164 5.19159 5.655 4.79722 5.655 4.38602C5.655 3.97481 5.49164 3.58045 5.20088 3.28968C4.91011 2.99891 4.51575 2.83556 4.10454 2.83556C3.69333 2.83556 3.29897 2.99891 3.0082 3.28968C2.71743 3.58045 2.55408 3.97481 2.55408 4.38602C2.55408 4.79722 2.71743 5.19159 3.0082 5.48236C3.29897 5.77312 3.69333 5.93648 4.10454 5.93648Z" fill="#404B5A"/>
</svg>
