<svg width="16" height="15" viewBox="0 0 16 15" fill="none" xmlns="http://www.w3.org/2000/svg">
<path d="M9.64226 3.59533C6.27001 3.59533 3.55154 5.98562 3.55154 8.93214C3.55154 11.8793 6.26936 14.2696 9.64226 14.2696C10.8536 14.2696 12.0002 13.9588 12.9499 13.4188C13.8007 13.9259 14.7342 13.9098 15.2743 13.8445C15.4216 13.8277 15.4707 13.6313 15.3395 13.5331C14.8163 13.1894 14.5378 12.7146 14.3737 12.2889C15.2252 11.3715 15.733 10.2093 15.733 8.93278C15.733 5.98562 12.9984 3.59533 9.64226 3.59533ZM10.0518 11.0937C10.0502 11.1583 10.0238 11.2198 9.97812 11.2655C9.93243 11.3112 9.87094 11.3376 9.80635 11.3392H9.20038C9.13578 11.3376 9.07429 11.3112 9.0286 11.2655C8.98291 11.2198 8.95652 11.1583 8.95489 11.0937V10.701C8.95652 10.6364 8.98291 10.5749 9.0286 10.5292C9.07429 10.4835 9.13578 10.4571 9.20038 10.4555H9.8057C9.87029 10.4571 9.93179 10.4835 9.97748 10.5292C10.0232 10.5749 10.0496 10.6364 10.0512 10.701V11.0937H10.0518ZM11.0176 8.71959C10.859 8.94907 10.645 9.13482 10.3955 9.25967C10.2644 9.35787 10.1662 9.45671 10.1171 9.5549C10.0848 9.6363 10.068 9.71835 10.0518 9.83269C10.0518 9.91474 9.96979 9.98063 9.88775 9.98063H9.13448C9.03629 9.98063 8.95489 9.89859 8.97104 9.79975C8.98719 9.5872 9.03629 9.42376 9.11833 9.30877C9.21653 9.16148 9.41292 8.98188 9.70751 8.78549C9.8548 8.68665 9.96979 8.58845 10.0518 8.44116C10.1332 8.31002 10.1823 8.14657 10.1823 7.98248C10.1823 7.80289 10.1332 7.65559 10.035 7.5406C9.93684 7.42625 9.8057 7.37716 9.62611 7.37716C9.49394 7.37523 9.36566 7.4219 9.26562 7.5083C9.20038 7.5574 9.16743 7.6388 9.13448 7.72149C9.11971 7.77466 9.08744 7.8213 9.0429 7.85389C8.99836 7.88647 8.94414 7.9031 8.88899 7.90108L8.18483 7.88493C8.10343 7.88493 8.02138 7.80289 8.03753 7.72084C8.07048 7.34421 8.20162 7.06577 8.46391 6.86938C8.75785 6.64069 9.15128 6.5257 9.62611 6.5257C10.1494 6.5257 10.5428 6.65684 10.8374 6.91848C11.132 7.18077 11.2793 7.52445 11.2793 7.96633C11.2631 8.24477 11.1811 8.50705 11.0176 8.71959ZM1.34149 7.47535C0.637327 6.72209 0.228394 5.75628 0.228394 4.70843C0.228394 2.26905 2.48754 0.287689 5.25446 0.287689C7.13762 0.287689 8.7908 1.20504 9.64226 2.54748C5.90953 2.54748 2.83122 5.13416 2.52049 8.40886C1.81632 8.83459 1.04691 8.81779 0.605026 8.75254C0.576915 8.75015 0.550336 8.73871 0.529273 8.71994C0.50821 8.70117 0.493797 8.67608 0.488194 8.64843C0.482591 8.62078 0.4861 8.59206 0.498195 8.56657C0.51029 8.54108 0.53032 8.5202 0.555282 8.50705C0.912248 8.24707 1.18551 7.88849 1.34149 7.47535Z" fill="#404B5A"/>
</svg>
