<svg width="18" height="18" viewBox="0 0 18 18" fill="none" xmlns="http://www.w3.org/2000/svg">
<mask id="path-1-outside-1_2349_25535" maskUnits="userSpaceOnUse" x="0.377441" y="0.376953" width="18" height="18" fill="black">
<rect fill="white" x="0.377441" y="0.376953" width="18" height="18"/>
<path fill-rule="evenodd" clip-rule="evenodd" d="M13.5393 12.6003L16.9391 16.0602C17.5653 16.6863 16.6262 17.6256 16 16.9995L12.6001 13.5394C9.89226 15.7728 5.89753 15.6021 3.38742 13.092C0.707448 10.412 0.707448 6.06691 3.38742 3.38693C6.0674 0.70696 10.4125 0.70696 13.0925 3.38693C15.6028 5.89729 15.7733 9.89249 13.5393 12.6003ZM12.1533 4.32614C9.99204 2.16487 6.48793 2.16487 4.32666 4.32614C2.16539 6.4874 2.16539 9.99152 4.32666 12.1528C6.48793 14.3141 9.99204 14.3141 12.1533 12.1528C14.3146 9.99152 14.3146 6.4874 12.1533 4.32614Z"/>
</mask>
<path fill-rule="evenodd" clip-rule="evenodd" d="M13.5393 12.6003L16.9391 16.0602C17.5653 16.6863 16.6262 17.6256 16 16.9995L12.6001 13.5394C9.89226 15.7728 5.89753 15.6021 3.38742 13.092C0.707448 10.412 0.707448 6.06691 3.38742 3.38693C6.0674 0.70696 10.4125 0.70696 13.0925 3.38693C15.6028 5.89729 15.7733 9.89249 13.5393 12.6003ZM12.1533 4.32614C9.99204 2.16487 6.48793 2.16487 4.32666 4.32614C2.16539 6.4874 2.16539 9.99152 4.32666 12.1528C6.48793 14.3141 9.99204 14.3141 12.1533 12.1528C14.3146 9.99152 14.3146 6.4874 12.1533 4.32614Z" fill="#ABB1BA"/>
<path d="M13.5393 12.6003L13.1537 12.2821L12.8671 12.6295L13.1827 12.9507L13.5393 12.6003ZM16.9391 16.0602L16.5824 16.4107L16.5856 16.4138L16.9391 16.0602ZM16 16.9995L15.6433 17.35L15.6465 17.3531L16 16.9995ZM12.6001 13.5394L12.9567 13.189L12.6355 12.8621L12.2819 13.1537L12.6001 13.5394ZM3.38742 13.092L3.74098 12.7384L3.38742 13.092ZM13.0925 3.38693L13.446 3.03338L13.0925 3.38693ZM13.1827 12.9507L16.5824 16.4106L17.2957 15.7098L13.896 12.2499L13.1827 12.9507ZM16.5856 16.4138C16.6462 16.4744 16.6464 16.5131 16.6454 16.5298C16.6437 16.5589 16.6277 16.6038 16.5856 16.6459C16.5435 16.688 16.4986 16.7041 16.4695 16.7058C16.4528 16.7068 16.4141 16.7065 16.3535 16.6459L15.6465 17.3531C15.899 17.6056 16.2125 17.7227 16.5284 17.7041C16.832 17.6862 17.1001 17.5457 17.2928 17.3529C17.4855 17.1602 17.6259 16.892 17.6437 16.5884C17.6623 16.2726 17.5451 15.959 17.2926 15.7066L16.5856 16.4138ZM16.3566 16.6491L12.9567 13.189L12.2434 13.8899L15.6434 17.35L16.3566 16.6491ZM12.2819 13.1537C9.77211 15.2237 6.06822 15.0657 3.74098 12.7384L3.03387 13.4455C5.72685 16.1385 10.0124 16.3218 12.9182 13.9252L12.2819 13.1537ZM3.74098 12.7384C1.25626 10.2537 1.25626 6.2252 3.74098 3.74049L3.03387 3.03338C0.158632 5.90862 0.158632 10.5703 3.03387 13.4455L3.74098 12.7384ZM3.74098 3.74049C6.22569 1.25577 10.2542 1.25577 12.7389 3.74049L13.446 3.03338C10.5708 0.158144 5.9091 0.158144 3.03387 3.03338L3.74098 3.74049ZM12.7389 3.74049C15.0664 6.06795 15.2242 9.77228 13.1537 12.2821L13.925 12.9185C16.3223 10.0127 16.1393 5.72662 13.446 3.03338L12.7389 3.74049ZM12.5069 3.97258C10.1503 1.61605 6.32964 1.61605 3.97311 3.97258L4.68022 4.67969C6.64622 2.71368 9.83375 2.71368 11.7998 4.67969L12.5069 3.97258ZM3.97311 3.97258C1.61658 6.32911 1.61658 10.1498 3.97311 12.5063L4.68022 11.7992C2.71421 9.83322 2.71421 6.6457 4.68022 4.67969L3.97311 3.97258ZM3.97311 12.5063C6.32964 14.8629 10.1503 14.8629 12.5069 12.5063L11.7998 11.7992C9.83375 13.7652 6.64622 13.7652 4.68022 11.7992L3.97311 12.5063ZM12.5069 12.5063C14.8634 10.1498 14.8634 6.32911 12.5069 3.97258L11.7998 4.67969C13.7658 6.6457 13.7658 9.83322 11.7998 11.7992L12.5069 12.5063Z" fill="#ABB1BA" mask="url(#path-1-outside-1_2349_25535)"/>
</svg>
