<svg width="16" height="16" viewBox="0 0 16 16" fill="none" xmlns="http://www.w3.org/2000/svg">
<path fill-rule="evenodd" clip-rule="evenodd" d="M3.91908 1.91911C4.29415 1.54404 4.80286 1.33333 5.33329 1.33333C5.86373 1.33333 6.37243 1.54404 6.74751 1.91911C7.12258 2.29419 7.33329 2.80289 7.33329 3.33333C7.33329 3.83311 7.14623 4.3136 6.81088 4.68119L7.70469 6.0219C7.80186 6.0074 7.90053 5.99999 7.99996 5.99999C8.09939 5.99999 8.19806 6.0074 8.29523 6.0219L9.18904 4.68119C8.85369 4.3136 8.66663 3.83311 8.66663 3.33333C8.66663 2.80289 8.87734 2.29419 9.25241 1.91911C9.62749 1.54404 10.1362 1.33333 10.6666 1.33333C11.1971 1.33333 11.7058 1.54404 12.0808 1.91911C12.4559 2.29419 12.6666 2.80289 12.6666 3.33333C12.6666 3.86376 12.4559 4.37247 12.0808 4.74754C11.7058 5.12261 11.1971 5.33333 10.6666 5.33333C10.5672 5.33333 10.4685 5.32592 10.3714 5.31142L9.47755 6.65213C9.65904 6.85108 9.7971 7.08309 9.88558 7.33333H11.4477C11.5462 7.05473 11.7061 6.79872 11.9191 6.58578C12.2942 6.21071 12.8029 5.99999 13.3333 5.99999C13.8637 5.99999 14.3724 6.21071 14.7475 6.58578C15.1226 6.96085 15.3333 7.46956 15.3333 7.99999C15.3333 8.53043 15.1226 9.03914 14.7475 9.41421C14.3724 9.78928 13.8637 10 13.3333 10C12.8029 10 12.2942 9.78928 11.9191 9.41421C11.7061 9.20127 11.5462 8.94526 11.4477 8.66666H9.88558C9.7971 8.9169 9.65904 9.14891 9.47755 9.34786L10.3714 10.6886C10.4685 10.6741 10.5672 10.6667 10.6666 10.6667C11.1971 10.6667 11.7058 10.8774 12.0808 11.2524C12.4559 11.6275 12.6666 12.1362 12.6666 12.6667C12.6666 13.1971 12.4559 13.7058 12.0808 14.0809C11.7058 14.4559 11.1971 14.6667 10.6666 14.6667C10.1362 14.6667 9.62749 14.4559 9.25241 14.0809C8.87734 13.7058 8.66663 13.1971 8.66663 12.6667C8.66663 12.1669 8.85369 11.6864 9.18904 11.3188L8.29523 9.97809C8.19806 9.99259 8.09939 10 7.99996 10C7.90053 10 7.80186 9.99259 7.70469 9.97809L6.81088 11.3188C7.14623 11.6864 7.33329 12.1669 7.33329 12.6667C7.33329 13.1971 7.12258 13.7058 6.74751 14.0809C6.37243 14.4559 5.86373 14.6667 5.33329 14.6667C4.80286 14.6667 4.29415 14.4559 3.91908 14.0809C3.54401 13.7058 3.33329 13.1971 3.33329 12.6667C3.33329 12.1362 3.54401 11.6275 3.91908 11.2524C4.29415 10.8774 4.80286 10.6667 5.33329 10.6667C5.43273 10.6667 5.5314 10.6741 5.62856 10.6886L6.52237 9.34786C6.34088 9.14891 6.20282 8.9169 6.11434 8.66666H4.55225C4.45374 8.94526 4.29378 9.20127 4.08084 9.41421C3.70577 9.78928 3.19706 10 2.66663 10C2.13619 10 1.62748 9.78928 1.25241 9.41421C0.87734 9.03914 0.666626 8.53043 0.666626 7.99999C0.666626 7.46956 0.87734 6.96085 1.25241 6.58578C1.62748 6.21071 2.13619 5.99999 2.66663 5.99999C3.19706 5.99999 3.70577 6.21071 4.08084 6.58578C4.29378 6.79872 4.45374 7.05473 4.55225 7.33333H6.11434C6.20282 7.08309 6.34088 6.85108 6.52237 6.65213L5.62856 5.31142C5.5314 5.32592 5.43273 5.33333 5.33329 5.33333C4.80286 5.33333 4.29415 5.12261 3.91908 4.74754C3.54401 4.37247 3.33329 3.86376 3.33329 3.33333C3.33329 2.8029 3.54401 2.29419 3.91908 1.91911ZM5.33329 2.66666C5.15648 2.66666 4.98691 2.7369 4.86189 2.86192C4.73686 2.98695 4.66663 3.15652 4.66663 3.33333C4.66663 3.51014 4.73686 3.67971 4.86189 3.80473C4.98691 3.92976 5.15648 3.99999 5.33329 3.99999C5.5101 3.99999 5.67967 3.92976 5.8047 3.80473C5.92972 3.67971 5.99996 3.51014 5.99996 3.33333C5.99996 3.15652 5.92972 2.98695 5.8047 2.86192C5.67967 2.7369 5.5101 2.66666 5.33329 2.66666ZM10.6666 2.66666C10.4898 2.66666 10.3202 2.7369 10.1952 2.86192C10.0702 2.98695 9.99996 3.15652 9.99996 3.33333C9.99996 3.51014 10.0702 3.67971 10.1952 3.80473C10.3202 3.92976 10.4898 3.99999 10.6666 3.99999C10.8434 3.99999 11.013 3.92976 11.138 3.80473C11.2631 3.67971 11.3333 3.51014 11.3333 3.33333C11.3333 3.15652 11.2631 2.98695 11.138 2.86192C11.013 2.7369 10.8434 2.66666 10.6666 2.66666ZM2.66663 7.33333C2.48982 7.33333 2.32025 7.40357 2.19522 7.52859C2.0702 7.65361 1.99996 7.82318 1.99996 7.99999C1.99996 8.17681 2.0702 8.34637 2.19522 8.4714C2.32025 8.59642 2.48982 8.66666 2.66663 8.66666C2.84344 8.66666 3.01301 8.59642 3.13803 8.4714C3.26305 8.34637 3.33329 8.17681 3.33329 7.99999C3.33329 7.82318 3.26305 7.65361 3.13803 7.52859C3.01301 7.40357 2.84344 7.33333 2.66663 7.33333ZM7.99996 7.33333C7.82315 7.33333 7.65358 7.40357 7.52855 7.52859C7.40353 7.65361 7.33329 7.82318 7.33329 7.99999C7.33329 8.17681 7.40353 8.34637 7.52855 8.4714C7.65358 8.59642 7.82315 8.66666 7.99996 8.66666C8.17677 8.66666 8.34634 8.59642 8.47136 8.4714C8.59639 8.34637 8.66663 8.17681 8.66663 7.99999C8.66663 7.82318 8.59639 7.65361 8.47136 7.52859C8.34634 7.40357 8.17677 7.33333 7.99996 7.33333ZM13.3333 7.33333C13.1565 7.33333 12.9869 7.40357 12.8619 7.52859C12.7369 7.65361 12.6666 7.82318 12.6666 7.99999C12.6666 8.17681 12.7369 8.34637 12.8619 8.4714C12.9869 8.59642 13.1565 8.66666 13.3333 8.66666C13.5101 8.66666 13.6797 8.59642 13.8047 8.4714C13.9297 8.34637 14 8.17681 14 7.99999C14 7.82318 13.9297 7.65361 13.8047 7.52859C13.6797 7.40357 13.5101 7.33333 13.3333 7.33333ZM5.33329 12C5.15648 12 4.98691 12.0702 4.86189 12.1953C4.73686 12.3203 4.66663 12.4899 4.66663 12.6667C4.66663 12.8435 4.73686 13.013 4.86189 13.1381C4.98691 13.2631 5.15648 13.3333 5.33329 13.3333C5.5101 13.3333 5.67967 13.2631 5.8047 13.1381C5.92972 13.013 5.99996 12.8435 5.99996 12.6667C5.99996 12.4899 5.92972 12.3203 5.8047 12.1953C5.67967 12.0702 5.5101 12 5.33329 12ZM10.6666 12C10.4898 12 10.3202 12.0702 10.1952 12.1953C10.0702 12.3203 9.99996 12.4899 9.99996 12.6667C9.99996 12.8435 10.0702 13.013 10.1952 13.1381C10.3202 13.2631 10.4898 13.3333 10.6666 13.3333C10.8434 13.3333 11.013 13.2631 11.138 13.1381C11.2631 13.013 11.3333 12.8435 11.3333 12.6667C11.3333 12.4899 11.2631 12.3203 11.138 12.1953C11.013 12.0702 10.8434 12 10.6666 12Z" fill="#343D49"/>
</svg>
